REM DIRINDEX 1\2,1\3\5,1\3\6,1\4\7,1\4\8
REM DIRNAME cjc139,folder01,folder02,folder03,folder04,folder05,folder06,folder07
TITLE ""
FILE "EG_E3_14.mp3" MP3
  TRACK 01 AUDIO
    TITLE "0:"
    INDEX 01 00:00:00
  TRACK 02 AUDIO
    TITLE "5:cjc139_1881"
    INDEX 01 00:00:17
  TRACK 03 AUDIO
    TITLE "6:cjc139_1882"
    INDEX 01 00:02:47
  TRACK 04 AUDIO
    TITLE "5:cjc139_1883"
    INDEX 01 00:05:32
  TRACK 05 AUDIO
    TITLE "6:cjc139_1884"
    INDEX 01 00:08:24
  TRACK 06 AUDIO
    TITLE "5:cjc139_1885"
    INDEX 01 00:11:11
  TRACK 07 AUDIO
    TITLE "6:cjc139_1886"
    INDEX 01 00:13:69
  TRACK 08 AUDIO
    TITLE "5:cjc139_1887"
    INDEX 01 00:16:51
  TRACK 09 AUDIO
    TITLE "6:cjc139_1888"
    INDEX 01 00:18:56
  TRACK 10 AUDIO
    TITLE "5:cjc139_1889"
    INDEX 01 00:21:37
  TRACK 11 AUDIO
    TITLE "6:cjc139_1890"
    INDEX 01 00:24:10
  TRACK 12 AUDIO
    TITLE "5:cjc139_1891"
    INDEX 01 00:26:71
  TRACK 13 AUDIO
    TITLE "6:cjc139_1892"
    INDEX 01 00:29:29
  TRACK 14 AUDIO
    TITLE "5:cjc139_1893"
    INDEX 01 00:32:11
  TRACK 15 AUDIO
    TITLE "6:cjc139_1894"
    INDEX 01 00:34:28
  TRACK 16 AUDIO
    TITLE "5:cjc139_1895"
    INDEX 01 00:37:14
  TRACK 17 AUDIO
    TITLE "6:cjc139_1896"
    INDEX 01 00:40:21
  TRACK 18 AUDIO
    TITLE "5:cjc139_1897"
    INDEX 01 00:43:05
  TRACK 19 AUDIO
    TITLE "6:cjc139_1898"
    INDEX 01 00:45:61
  TRACK 20 AUDIO
    TITLE "5:cjc139_1899"
    INDEX 01 00:48:44
  TRACK 21 AUDIO
    TITLE "6:cjc139_1900"
    INDEX 01 00:51:20
  TRACK 22 AUDIO
    TITLE "5:cjc139_1901"
    INDEX 01 00:54:03
  TRACK 23 AUDIO
    TITLE "6:cjc139_1902"
    INDEX 01 00:56:43
  TRACK 24 AUDIO
    TITLE "5:cjc139_1903"
    INDEX 01 00:59:28
  TRACK 25 AUDIO
    TITLE "6:cjc139_1904"
    INDEX 01 01:02:05
  TRACK 26 AUDIO
    TITLE "5:cjc139_1905"
    INDEX 01 01:04:62
  TRACK 27 AUDIO
    TITLE "6:cjc139_1906"
    INDEX 01 01:07:19
  TRACK 28 AUDIO
    TITLE "5:cjc139_1907"
    INDEX 01 01:10:04
  TRACK 29 AUDIO
    TITLE "6:cjc139_1908"
    INDEX 01 01:12:66
  TRACK 30 AUDIO
    TITLE "5:cjc139_1909"
    INDEX 01 01:15:52
  TRACK 31 AUDIO
    TITLE "6:cjc139_1910"
    INDEX 01 01:18:13
  TRACK 32 AUDIO
    TITLE "5:cjc139_1911"
    INDEX 01 01:20:73
  TRACK 33 AUDIO
    TITLE "6:cjc139_1912"
    INDEX 01 01:23:62
  TRACK 34 AUDIO
    TITLE "5:cjc139_1913"
    INDEX 01 01:26:44
  TRACK 35 AUDIO
    TITLE "6:cjc139_1914"
    INDEX 01 01:29:09
  TRACK 36 AUDIO
    TITLE "5:cjc139_1915"
    INDEX 01 01:31:71
  TRACK 37 AUDIO
    TITLE "6:cjc139_1916"
    INDEX 01 01:34:20
  TRACK 38 AUDIO
    TITLE "5:cjc139_1917"
    INDEX 01 01:37:05
  TRACK 39 AUDIO
    TITLE "6:cjc139_1918"
    INDEX 01 01:39:49
  TRACK 40 AUDIO
    TITLE "5:cjc139_1919"
    INDEX 01 01:42:31
  TRACK 41 AUDIO
    TITLE "6:cjc139_1920"
    INDEX 01 01:45:28
  TRACK 42 AUDIO
    TITLE "5:cjc139_1921"
    INDEX 01 01:48:14
  TRACK 43 AUDIO
    TITLE "6:cjc139_1922"
    INDEX 01 01:50:70
  TRACK 44 AUDIO
    TITLE "5:cjc139_1923"
    INDEX 01 01:53:55
  TRACK 45 AUDIO
    TITLE "6:cjc139_1924"
    INDEX 01 01:56:53
  TRACK 46 AUDIO
    TITLE "5:cjc139_1925"
    INDEX 01 01:59:38
  TRACK 47 AUDIO
    TITLE "6:cjc139_1926"
    INDEX 01 02:02:58
  TRACK 48 AUDIO
    TITLE "5:cjc139_1927"
    INDEX 01 02:05:42
  TRACK 49 AUDIO
    TITLE "6:cjc139_1928"
    INDEX 01 02:09:09
  TRACK 50 AUDIO
    TITLE "5:cjc139_1929"
    INDEX 01 02:11:66
  TRACK 51 AUDIO
    TITLE "6:cjc139_1930"
    INDEX 01 02:15:62
  TRACK 52 AUDIO
    TITLE "5:cjc139_1931"
    INDEX 01 02:18:47
  TRACK 53 AUDIO
    TITLE "6:cjc139_1932"
    INDEX 01 02:22:07
  TRACK 54 AUDIO
    TITLE "5:cjc139_1933"
    INDEX 01 02:24:65
  TRACK 55 AUDIO
    TITLE "6:cjc139_1934"
    INDEX 01 02:27:09
  TRACK 56 AUDIO
    TITLE "5:cjc139_1935"
    INDEX 01 02:29:70
  TRACK 57 AUDIO
    TITLE "6:cjc139_1936"
    INDEX 01 02:32:25
  TRACK 58 AUDIO
    TITLE "5:cjc139_1937"
    INDEX 01 02:35:10
  TRACK 59 AUDIO
    TITLE "6:cjc139_1938"
    INDEX 01 02:37:56
  TRACK 60 AUDIO
    TITLE "5:cjc139_1939"
    INDEX 01 02:40:41
  TRACK 61 AUDIO
    TITLE "6:cjc139_1940"
    INDEX 01 02:43:25
  TRACK 62 AUDIO
    TITLE "5:cjc139_1941"
    INDEX 01 02:46:10
  TRACK 63 AUDIO
    TITLE "6:cjc139_1942"
    INDEX 01 02:48:07
  TRACK 64 AUDIO
    TITLE "5:cjc139_1943"
    INDEX 01 02:50:66
  TRACK 65 AUDIO
    TITLE "6:cjc139_1944"
    INDEX 01 02:53:28
  TRACK 66 AUDIO
    TITLE "5:cjc139_1945"
    INDEX 01 02:56:12
  TRACK 67 AUDIO
    TITLE "6:cjc139_1946"
    INDEX 01 02:59:73
  TRACK 68 AUDIO
    TITLE "5:cjc139_1947"
    INDEX 01 03:02:58
  TRACK 69 AUDIO
    TITLE "6:cjc139_1948"
    INDEX 01 03:05:52
  TRACK 70 AUDIO
    TITLE "0:"
    INDEX 01 03:08:43
